# File created by Blade
# Date/Time:  Wed Jan 21 17:34:04 2015
# Frame Rate: 120.000 fps
#------------------------------------------------------
:FULLY-SPECIFIED
:DEGREES
661
root 18.829680 5.445321 -18.968610 -172.443309 -23.848655 -139.127352
Spine 4.416152 -9.475674 28.832611
Head 8.273758 -41.595132 26.997897
LeftShoulder -6.732335 -9.045484 10.327711
LeftArm -34.872036 23.158877 -93.866853
LeftForeArm -9.356228 -0.000000 45.054505
LeftHand -2.841109 -0.000000 13.512119
LeftHandThumb1 -26.253704 0.000000 33.147579
RightShoulder -21.222348 -10.215931 15.686260
RightArm -48.749988 71.675938 18.249407
RightForeArm 40.947247 -0.000000 29.187325
RightHand 15.500699 0.000000 13.522534
RightHandThumb1 -24.326973 -0.000000 -32.862282
LeftUpLeg -102.829440 -21.782767 -48.665102
LeftLeg 131.477763 -0.000000 -0.000000
LeftFoot 31.187307 22.516079 2.316296
LeftToeBase 25.055236 -0.000000 -0.000000
RightUpLeg 5.997861 9.442591 -22.281687
RightLeg 129.521500 -0.000000 -0.000000
RightFoot 37.888142 -24.911359 -17.840327
RightToeBase 21.610092 -0.000000 -0.000000
662
root 18.854393 5.439666 -19.016727 -172.233063 -24.251718 -139.349562
Spine 3.993043 -9.248320 28.848974
Head 8.762682 -42.067546 26.673087
LeftShoulder -6.870147 -9.223616 10.126899
LeftArm -34.757528 23.208101 -93.478815
LeftForeArm -8.982502 -0.000000 44.625307
LeftHand -2.460624 -0.000000 13.177766
LeftHandThumb1 -26.253704 0.000000 33.147579
RightShoulder -21.601724 -10.502531 15.782164
RightArm -48.954824 71.938145 18.189984
RightForeArm 42.113889 -0.000000 30.223091
RightHand 15.514850 0.000000 13.327874
RightHandThumb1 -24.326973 -0.000000 -32.862282
LeftUpLeg -102.656836 -22.086184 -48.871243
LeftLeg 131.677241 -0.000000 -0.000000
LeftFoot 31.028725 21.887251 2.923089
LeftToeBase 25.778319 -0.000000 -0.000000
RightUpLeg 6.321933 9.675828 -22.265714
RightLeg 129.276963 -0.000000 -0.000000
RightFoot 38.040411 -25.103565 -17.847710
RightToeBase 21.261742 -0.000000 -0.000000
663
root 18.879902 5.437431 -19.068938 -172.072959 -24.653887 -139.526316
Spine 3.593524 -9.005438 28.894094
Head 9.227349 -42.514205 26.353134
LeftShoulder -7.011790 -9.434214 9.964558
LeftArm -34.708420 23.220418 -93.139933
LeftForeArm -8.667697 0.000000 44.331035
LeftHand -2.245788 -0.000000 12.888397
LeftHandThumb1 -26.253704 0.000000 33.147579
RightShoulder -21.894473 -10.700600 15.789078
RightArm -49.707739 72.134526 17.622414
RightForeArm 43.060106 -0.000000 31.150236
RightHand 15.571694 -0.000000 13.034514
RightHandThumb1 -24.326973 -0.000000 -32.862282
LeftUpLeg -102.500943 -22.344367 -49.036353
LeftLeg 131.871288 -0.000000 -0.000000
LeftFoot 31.003979 21.563881 3.136654
LeftToeBase 25.863250 -0.000000 -0.000000
RightUpLeg 6.688532 10.026978 -22.153944
RightLeg 129.069640 -0.000000 -0.000000
RightFoot 37.969282 -25.110464 -17.618713
RightToeBase 21.438720 -0.000000 -0.000000
664
root 18.905609 5.436168 -19.121239 -171.884308 -25.025291 -139.655233
Spine 3.143531 -8.661948 29.007864
Head 9.681241 -43.024831 25.977082
LeftShoulder -7.160641 -9.490750 9.800940
LeftArm -34.459227 23.157593 -92.743771
LeftForeArm -8.223902 -0.000000 44.018013
LeftHand -2.058864 0.000000 12.513095
LeftHandThumb1 -26.253704 0.000000 33.147579
RightShoulder -22.275379 -10.978314 15.712169
RightArm -50.750926 72.539324 16.787142
RightForeArm 43.456465 0.000000 31.983753
RightHand 15.732505 -0.000000 12.872039
RightHandThumb1 -24.326973 -0.000000 -32.862282
LeftUpLeg -102.410466 -22.613690 -49.171672
LeftLeg 132.053411 -0.000000 -0.000000
LeftFoot 31.065238 21.483319 3.170451
LeftToeBase 25.562820 -0.000000 -0.000000
RightUpLeg 6.967140 10.415925 -22.003035
RightLeg 128.866630 -0.000000 -0.000000
RightFoot 38.124218 -24.978553 -17.587354
RightToeBase 21.540996 -0.000000 -0.000000
665
root 18.931757 5.437733 -19.177417 -171.704234 -25.413800 -139.762081
Spine 2.651069 -8.358530 29.122933
Head 10.235171 -43.523387 25.569417
LeftShoulder -7.370170 -9.414961 9.684443
LeftArm -34.071210 23.109970 -92.349944
LeftForeArm -7.866625 -0.000000 43.672935
LeftHand -1.886749 -0.000000 12.304025
LeftHandThumb1 -26.253704 0.000000 33.147579
RightShoulder -22.649774 -11.396331 15.687561
RightArm -51.984789 73.114608 15.750662
RightForeArm 43.729578 0.000000 32.896878
RightHand 15.755109 0.000000 12.870075
RightHandThumb1 -24.326973 -0.000000 -32.862282
LeftUpLeg -102.347603 -22.860548 -49.257881
LeftLeg 132.225932 -0.000000 -0.000000
LeftFoot 31.226823 21.608502 2.803312
LeftToeBase 24.835748 -0.000000 -0.000000
RightUpLeg 7.239892 10.784598 -21.836540
RightLeg 128.636435 -0.000000 -0.000000
RightFoot 38.373877 -24.929317 -17.530458
RightToeBase 21.577517 -0.000000 -0.000000
666
root 18.956528 5.443349 -19.227895 -171.527158 -25.779378 -139.827485
Spine 2.181278 -7.978599 29.301496
Head 10.694381 -43.982800 25.121763
LeftShoulder -7.595708 -9.448730 9.552292
LeftArm -33.738921 23.060834 -91.948988
LeftForeArm -7.490710 -0.000000 43.389878
LeftHand -1.709171 -0.000000 11.773284
LeftHandThumb1 -26.253704 0.000000 33.147579
RightShoulder -23.082320 -11.734799 15.654040
RightArm -52.216337 73.228600 15.801692
RightForeArm 44.302524 0.000000 34.033775
RightHand 15.802789 -0.000000 12.588591
RightHandThumb1 -24.326973 -0.000000 -32.862282
LeftUpLeg -102.272703 -23.102275 -49.321138
LeftLeg 132.431936 -0.000000 -0.000000
LeftFoot 31.089320 21.141219 3.224550
LeftToeBase 25.273622 -0.000000 -0.000000
RightUpLeg 7.465262 11.215808 -21.598192
RightLeg 128.428909 -0.000000 -0.000000
RightFoot 38.577487 -24.789042 -17.525992
RightToeBase 21.500095 -0.000000 -0.000000
667
root 18.983352 5.450128 -19.285288 -171.371216 -26.193394 -139.872860
Spine 1.672269 -7.629996 29.478747
Head 11.153454 -44.445953 24.730514
LeftShoulder -7.844179 -9.359449 9.496436
LeftArm -33.244997 23.021980 -91.532646
LeftForeArm -7.390943 -0.000000 43.077493
LeftHand -1.540284 -0.000000 11.070082
LeftHandThumb1 -26.253704 0.000000 33.147579
RightShoulder -23.446113 -12.016774 15.648915
RightArm -53.127829 73.291367 15.159998
RightForeArm 44.787681 -0.000000 35.203927
RightHand 15.732378 -0.000000 12.636763
RightHandThumb1 -24.326973 -0.000000 -32.862282
LeftUpLeg -102.187736 -23.366835 -49.379886
LeftLeg 132.622893 -0.000000 -0.000000
LeftFoot 31.048218 21.036297 3.210810
LeftToeBase 25.290737 -0.000000 -0.000000
RightUpLeg 7.729985 11.608919 -21.315295
RightLeg 128.214583 -0.000000 -0.000000
RightFoot 38.698897 -24.693224 -17.518776
RightToeBase 21.515258 -0.000000 -0.000000
668
root 19.014799 5.458948 -19.345633 -171.280966 -26.621906 -139.922627
Spine 1.243673 -7.311430 29.605711
Head 11.517622 -44.867957 24.457411
LeftShoulder -8.035085 -9.426537 9.453770
LeftArm -32.917271 22.914044 -91.134966
LeftForeArm -7.061721 0.000000 42.856924
LeftHand -1.505657 -0.000000 10.456216
LeftHandThumb1 -26.253704 0.000000 33.147579
RightShoulder -23.901091 -12.340045 15.724694
RightArm -53.775527 73.471670 14.724696
RightForeArm 44.931772 -0.000000 36.414844
RightHand 15.583576 -0.000000 12.438030
RightHandThumb1 -24.326973 -0.000000 -32.862282
LeftUpLeg -102.060827 -23.586779 -49.477383
LeftLeg 132.825520 -0.000000 -0.000000
LeftFoot 31.063686 20.956529 3.291243
LeftToeBase 25.229818 -0.000000 -0.000000
RightUpLeg 8.057235 12.035606 -21.014404
RightLeg 128.028140 -0.000000 -0.000000
RightFoot 38.739808 -24.683030 -17.328147
RightToeBase 21.344251 -0.000000 -0.000000
669
root 19.044081 5.468235 -19.402386 -171.131930 -27.091486 -140.059497
Spine 0.760453 -7.038348 29.624392
Head 11.992730 -45.339358 24.157385
LeftShoulder -8.228619 -9.369856 9.405375
LeftArm -32.461812 22.906073 -90.689885
LeftForeArm -6.707824 -0.000000 42.642467
LeftHand -1.516131 -0.000000 9.846345
LeftHandThumb1 -26.253704 0.000000 33.147579
RightShoulder -24.363249 -12.646223 15.853089
RightArm -54.296396 73.578029 14.404920
RightForeArm 44.871508 -0.000000 37.718479
RightHand 15.402301 -0.000000 12.155336
RightHandThumb1 -24.326973 -0.000000 -32.862282
LeftUpLeg -101.881589 -23.837660 -49.644430
LeftLeg 132.989377 -0.000000 -0.000000
LeftFoot 31.048590 20.866905 3.371679
LeftToeBase 25.225719 -0.000000 -0.000000
RightUpLeg 8.377633 12.451238 -20.784565
RightLeg 127.811936 -0.000000 -0.000000
RightFoot 38.896318 -24.813698 -17.031944
RightToeBase 21.120806 -0.000000 -0.000000
670
root 19.077657 5.476088 -19.465648 -171.083904 -27.546784 -140.164138
Spine 0.376959 -6.787894 29.622104
Head 12.387084 -45.707308 23.954617
LeftShoulder -8.375943 -9.529440 9.483174
LeftArm -32.180883 22.844555 -90.390226
LeftForeArm -6.266006 -0.000000 42.303799
LeftHand -1.474903 -0.000000 9.088868
LeftHandThumb1 -26.253704 0.000000 33.147579
RightShoulder -24.783268 -12.853269 15.986764
RightArm -55.039931 73.558134 13.836574
RightForeArm 44.788782 0.000000 39.047316
RightHand 15.237085 0.000000 11.866690
RightHandThumb1 -24.326973 -0.000000 -32.862282
LeftUpLeg -101.682231 -24.026793 -49.798011
LeftLeg 133.187363 -0.000000 -0.000000
LeftFoot 31.050797 20.744082 3.431696
LeftToeBase 25.094756 -0.000000 -0.000000
RightUpLeg 8.780282 12.900592 -20.501959
RightLeg 127.610360 -0.000000 -0.000000
RightFoot 39.092364 -24.863153 -17.016586
RightToeBase 21.124291 -0.000000 -0.000000
671
root 19.106507 5.486496 -19.527075 -171.002097 -28.055127 -140.332985
Spine -0.045676 -6.636491 29.543560
Head 12.882222 -46.165943 23.721160
LeftShoulder -8.560925 -9.624364 9.526103
LeftArm -31.867033 22.977133 -90.097605
LeftForeArm -5.975613 -0.000000 42.008944
LeftHand -1.483747 -0.000000 8.609208
LeftHandThumb1 -26.253704 0.000000 33.147579
RightShoulder -25.197728 -13.061375 16.156945
RightArm -55.727749 73.594628 13.252793
RightForeArm 44.300580 -0.000000 40.382650
RightHand 14.941735 0.000000 11.673209
RightHandThumb1 -24.326973 -0.000000 -32.862282
LeftUpLeg -101.410226 -24.226808 -50.001291
LeftLeg 133.353776 -0.000000 -0.000000
LeftFoot 31.022431 20.601306 3.491010
LeftToeBase 25.133205 -0.000000 -0.000000
RightUpLeg 9.193601 13.345473 -20.256476
RightLeg 127.387609 -0.000000 -0.000000
RightFoot 39.286805 -24.984494 -16.844428
RightToeBase 20.974804 -0.000000 -0.000000
672
root 19.131940 5.496704 -19.583023 -170.897608 -28.546933 -140.518839
Spine -0.490767 -6.481112 29.463839
Head 13.388494 -46.482162 23.457095
LeftShoulder -8.687286 -9.641102 9.536732
LeftArm -31.486915 23.180918 -89.814464
LeftForeArm -5.711208 -0.000000 41.650180
LeftHand -1.411629 -0.000000 8.132543
LeftHandThumb1 -26.253704 0.000000 33.147579
RightShoulder -25.540076 -13.189747 16.226673
RightArm -56.148659 73.405062 13.003777
RightForeArm 44.263289 -0.000000 41.785769
RightHand 14.708774 -0.000000 11.233441
RightHandThumb1 -24.326973 -0.000000 -32.862282
LeftUpLeg -101.128753 -24.426759 -50.221295
LeftLeg 133.484823 -0.000000 -0.000000
LeftFoot 31.011765 20.542945 3.594407
LeftToeBase 25.087859 -0.000000 -0.000000
RightUpLeg 9.582766 13.843520 -20.029676
RightLeg 127.168309 -0.000000 -0.000000
RightFoot 39.564007 -25.063659 -16.783508
RightToeBase 21.036964 -0.000000 -0.000000
